<svg xmlns="http://www.w3.org/2000/svg" viewBox="0 0 36 24" role="img" aria-label="UK flag">
  <rect width="36" height="24" fill="#012169"/>
  <polygon points="0,0 4,0 36,20 36,24 32,24 0,4" fill="#ffffff"/>
  <polygon points="36,0 32,0 0,20 0,24 4,24 36,4" fill="#ffffff"/>
  <polygon points="0,0 2.2,0 36,21.2 36,24 33.8,24 0,2.8" fill="#c8102e"/>
  <polygon points="36,0 33.8,0 0,21.2 0,24 2.2,24 36,2.8" fill="#c8102e"/>
  <rect x="14" width="8" height="24" fill="#ffffff"/>
  <rect y="8" width="36" height="8" fill="#ffffff"/>
  <rect x="15.5" width="5" height="24" fill="#c8102e"/>
  <rect y="9.5" width="36" height="5" fill="#c8102e"/>
</svg>
